name Walk3.mot
datacolumns 19
datarows 30
range 4.90500000 5.05000000
endheader

                time	   L_ground_force_vx	   L_ground_force_vy	   L_ground_force_vz	   L_ground_force_px	   L_ground_force_py	   L_ground_force_pz	   R_ground_force_vx	   R_ground_force_vy	   R_ground_force_vz	   R_ground_force_px	   R_ground_force_py	   R_ground_force_pz	   L_ground_torque_x	   L_ground_torque_y	   L_ground_torque_z	   R_ground_torque_x	   R_ground_torque_y	   R_ground_torque_z	
          4.90500000	          0.00000000	          0.00000000	         -0.00000000	          0.00000000	          0.00000000	          0.00000000	          0.34335390	         51.81996683	          2.41505568	          0.29504036	          0.00000000	          0.07110612	          0.00000000	         -0.00000000	          0.00000000	          0.00000000	         -1.84682282	          0.00000000	
          4.91000000	          0.00000000	          0.00000000	         -0.00000000	          0.00000000	          0.00000000	          0.00000000	         -2.46400390	         35.23641672	          2.19487461	          0.26490702	          0.00000000	          0.06136084	          0.00000000	         -0.00000000	          0.00000000	          0.00000000	         -1.16060718	          0.00000000	
          4.91500000	          0.00000000	          0.00000000	         -0.00000000	          0.00000000	          0.00000000	          0.00000000	         -4.18142885	         22.06536323	          1.88489324	          0.22888524	          0.00000000	          0.05101322	          0.00000000	         -0.00000000	          0.00000000	          0.00000000	         -0.62951499	          0.00000000	
          4.92000000	          0.00000000	          0.00000000	         -0.00000000	         -0.00000000	          0.00000000	         -0.00000000	         -4.98091186	         11.93272776	          1.53747533	          0.18893115	          0.00000000	          0.04055764	          0.00000000	          0.00000000	          0.00000000	          0.00000000	         -0.23953230	          0.00000000	
          4.92500000	          0.00000000	          0.00000000	         -0.00000000	         -0.00000000	          0.00000000	         -0.00000000	         -5.10127008	          4.49420168	          1.19307815	          0.14845026	          0.00000000	          0.03065901	          0.00000000	          0.00000000	          0.00000000	          0.00000000	          0.02946815	          0.00000000	
          4.93000000	          0.00000000	          0.00000000	         -0.00000000	         -0.00000000	          0.00000000	         -0.00000000	         -4.77500469	         -0.63141800	          0.87786486	          0.11075003	          0.00000000	          0.02188645	          0.00000000	          0.00000000	          0.00000000	          0.00000000	          0.19964235	          0.00000000	
          4.93500000	          0.00000000	          0.00000000	         -0.00000000	         -0.00000000	          0.00000000	         -0.00000000	         -4.18813188	         -3.86844108	          0.60629619	          0.07781461	          0.00000000	          0.01452983	          0.00000000	          0.00000000	          0.00000000	          0.00000000	          0.29298247	          0.00000000	
          4.94000000	          0.00000000	          0.00000000	         -0.00000000	         -0.00000000	          0.00000000	         -0.00000000	         -3.48055112	         -5.63833436	          0.38419376	          0.05053957	          0.00000000	          0.00866303	          0.00000000	          0.00000000	          0.00000000	          0.00000000	          0.32966831	          0.00000000	
          4.94500000	          0.00000000	          0.00000000	         -0.00000000	         -0.00000000	          0.00000000	         -0.00000000	         -2.75152378	         -6.32740856	          0.21137870	          0.02905155	          0.00000000	          0.00421563	          0.00000000	          0.00000000	          0.00000000	          0.00000000	          0.32712146	          0.00000000	
          4.95000000	          0.00000000	          0.00000000	         -0.00000000	         -0.00000000	          0.00000000	         -0.00000000	         -2.06640041	         -6.26887699	          0.08383824	          0.01297407	          0.00000000	          0.00103019	          0.00000000	          0.00000000	          0.00000000	          0.00000000	          0.29961685	          0.00000000	
          4.95500000	          0.00000000	          0.00000000	          0.00000000	         -0.00000000	          0.00000000	         -0.00000000	         -1.46361678	         -5.73554945	         -0.00458157	          0.00163780	          0.00000000	         -0.00109405	          0.00000000	          0.00000000	          0.00000000	          0.00000000	          0.25828261	          0.00000000	
          4.96000000	          0.00000000	          0.00000000	          0.00000000	         -0.00000000	          0.00000000	         -0.00000000	         -0.96130892	         -4.93992422	         -0.06092114	         -0.00576146	          0.00000000	         -0.00236975	          0.00000000	          0.00000000	          0.00000000	          0.00000000	          0.21134874	          0.00000000	
          4.96500000	         -0.00000000	         -0.00000000	          0.00000000	         -0.00000000	          0.00000000	         -0.00000000	         -0.56316071	         -4.03901690	         -0.09223248	         -0.01005080	          0.00000000	         -0.00300042	          0.00000000	          0.00000000	          0.00000000	          0.00000000	          0.16453582	          0.00000000	
          4.97000000	         -0.00000000	         -0.00000000	          0.00000000	         -0.00000000	          0.00000000	         -0.00000000	         -0.26329677	         -3.14184509	         -0.10501737	         -0.01200657	          0.00000000	         -0.00316756	          0.00000000	          0.00000000	          0.00000000	          0.00000000	          0.12150281	          0.00000000	
          4.97500000	         -0.00000000	         -0.00000000	          0.00000000	         -0.00000000	          0.00000000	         -0.00000000	         -0.05017625	         -2.31802423	         -0.10491046	         -0.01231120	          0.00000000	         -0.00302422	          0.00000000	          0.00000000	          0.00000000	          0.00000000	          0.08429717	          0.00000000	
          4.98000000	         -0.00000000	         -0.00000000	          0.00000000	         -0.00000000	          0.00000000	         -0.00000000	          0.09046215	         -1.60639618	         -0.09654476	         -0.01153288	          0.00000000	         -0.00269313	          0.00000000	          0.00000000	          0.00000000	          0.00000000	          0.05377103	          0.00000000	
          4.98500000	         -0.00000000	         -0.00000000	          0.00000000	         -0.00000000	          0.00000000	         -0.00000000	          0.17349637	         -1.02299638	         -0.08354447	         -0.01012165	          0.00000000	         -0.00226781	          0.00000000	          0.00000000	          0.00000000	          0.00000000	          0.02994257	          0.00000000	
          4.99000000	         -0.00000000	         -0.00000000	          0.00000000	          0.00000000	          0.00000000	          0.00000000	          0.21302314	         -0.56796675	         -0.06860028	         -0.00841616	          0.00000000	         -0.00181570	          0.00000000	         -0.00000000	          0.00000000	          0.00000000	          0.01229374	          0.00000000	
          4.99500000	         -0.00000000	         -0.00000000	          0.00000000	          0.00000000	          0.00000000	          0.00000000	          0.22152334	         -0.23124576	         -0.05359141	         -0.00665684	          0.00000000	         -0.00138217	          0.00000000	         -0.00000000	          0.00000000	          0.00000000	          0.00000360	          0.00000000	
          5.00000000	         -0.00000000	         -0.00000000	          0.00000000	          0.00000000	          0.00000000	          0.00000000	          0.20945453	          0.00297563	         -0.03972808	         -0.00500215	          0.00000000	         -0.00099485	          0.00000000	         -0.00000000	          0.00000000	          0.00000000	         -0.00787811	          0.00000000	
          5.00500000	         -0.00000000	         -0.00000000	          0.00000000	          0.00000000	          0.00000000	          0.00000000	          0.18514972	          0.15294194	         -0.02769578	         -0.00354542	          0.00000000	         -0.00066778	          0.00000000	         -0.00000000	          0.00000000	          0.00000000	         -0.01230943	          0.00000000	
          5.01000000	         -0.00000000	         -0.00000000	          0.00000000	          0.00000000	          0.00000000	          0.00000000	          0.15492041	          0.23701657	         -0.01778930	         -0.00233084	          0.00000000	         -0.00040523	          0.00000000	         -0.00000000	          0.00000000	          0.00000000	         -0.01417763	          0.00000000	
          5.01500000	         -0.00000000	         -0.00000000	          0.00000000	          0.00000000	          0.00000000	          0.00000000	          0.12328261	          0.27218685	         -0.01002955	         -0.00136762	          0.00000000	         -0.00020481	          0.00000000	         -0.00000000	          0.00000000	          0.00000000	         -0.01425439	          0.00000000	
          5.02000000	         -0.00000000	         -0.00000000	          0.00000000	          0.00000000	          0.00000000	          0.00000000	          0.09324374	          0.27321419	         -0.00426015	         -0.00064176	          0.00000000	         -0.00006009	          0.00000000	         -0.00000000	          0.00000000	          0.00000000	         -0.01317626	          0.00000000	
          5.02500000	         -0.00000000	         -0.00000000	         -0.00000000	          0.00000000	          0.00000000	          0.00000000	          0.06660594	          0.25226506	         -0.00022343	         -0.00012553	          0.00000000	          0.00003747	          0.00000000	         -0.00000000	          0.00000000	          0.00000000	         -0.01144280	          0.00000000	
          5.03000000	         -0.00000000	         -0.00000000	         -0.00000000	          0.00000000	          0.00000000	          0.00000000	          0.04425591	          0.21887967	          0.00238292	          0.00021545	          0.00000000	          0.00009707	          0.00000000	         -0.00000000	          0.00000000	          0.00000000	         -0.00942617	          0.00000000	
          5.03500000	          0.00000000	          0.00000000	         -0.00000000	          0.00000000	          0.00000000	          0.00000000	          0.02642316	          0.18015953	          0.00386586	          0.00041708	          0.00000000	          0.00012762	          0.00000000	         -0.00000000	          0.00000000	          0.00000000	         -0.00738746	          0.00000000	
          5.04000000	          0.00000000	          0.00000000	         -0.00000000	          0.00000000	          0.00000000	          0.00000000	          0.01289761	          0.14108062	          0.00451110	          0.00051339	          0.00000000	          0.00013711	          0.00000000	         -0.00000000	          0.00000000	          0.00000000	         -0.00549581	          0.00000000	
          5.04500000	          0.00000000	          0.00000000	         -0.00000000	          0.00000000	          0.00000000	          0.00000000	          0.00320389	          0.10486230	          0.00456810	          0.00053455	          0.00000000	          0.00013235	          0.00000000	         -0.00000000	          0.00000000	          0.00000000	         -0.00384808	          0.00000000	
          5.05000000	          0.00000000	          0.00000000	         -0.00000000	          0.00000000	          0.00000000	          0.00000000	         -0.00326589	          0.07334285	          0.00424338	          0.00050584	          0.00000000	          0.00011884	          0.00000000	         -0.00000000	          0.00000000	          0.00000000	         -0.00248708	          0.00000000	
